<mxfile host="app.diagrams.net" modified="2024-05-27T14:50:50.733Z" agent="Mozilla/5.0 (Windows NT 10.0; Win64; x64) AppleWebKit/537.36 (KHTML, like Gecko) Chrome/121.0.0.0 Safari/537.36" etag="i5cNVstT1PCiLj5cJkw1" version="24.4.9" type="google">
  <diagram name="Página-1" id="zK1gYHnxcsqGyHL-e75N">
    <mxGraphModel grid="1" page="1" gridSize="10" guides="1" tooltips="1" connect="1" arrows="1" fold="1" pageScale="1" pageWidth="827" pageHeight="1169" math="0" shadow="0">
      <root>
        <mxCell id="0" />
        <mxCell id="1" parent="0" />
        <mxCell id="ERVDwO7_nxNrqoyQjBtw-1" value="" style="rounded=1;whiteSpace=wrap;html=1;" vertex="1" parent="1">
          <mxGeometry x="290" y="150" width="230" height="480" as="geometry" />
        </mxCell>
        <mxCell id="ERVDwO7_nxNrqoyQjBtw-2" value="Cadastro Produto" style="text;strokeColor=none;fillColor=none;html=1;fontSize=24;fontStyle=1;verticalAlign=middle;align=center;" vertex="1" parent="1">
          <mxGeometry x="355" y="180" width="100" height="40" as="geometry" />
        </mxCell>
        <mxCell id="ERVDwO7_nxNrqoyQjBtw-3" value="Código" style="text;html=1;align=center;verticalAlign=middle;whiteSpace=wrap;rounded=0;" vertex="1" parent="1">
          <mxGeometry x="295" y="240" width="60" height="30" as="geometry" />
        </mxCell>
        <mxCell id="ERVDwO7_nxNrqoyQjBtw-4" value="-&amp;nbsp; -&amp;nbsp; -" style="rounded=0;whiteSpace=wrap;html=1;" vertex="1" parent="1">
          <mxGeometry x="300" y="270" width="80" height="30" as="geometry" />
        </mxCell>
        <mxCell id="ERVDwO7_nxNrqoyQjBtw-5" value="Nome" style="text;html=1;align=center;verticalAlign=middle;whiteSpace=wrap;rounded=0;" vertex="1" parent="1">
          <mxGeometry x="375" y="240" width="60" height="30" as="geometry" />
        </mxCell>
        <mxCell id="ERVDwO7_nxNrqoyQjBtw-6" value="" style="rounded=0;whiteSpace=wrap;html=1;" vertex="1" parent="1">
          <mxGeometry x="390" y="270" width="120" height="30" as="geometry" />
        </mxCell>
        <mxCell id="ERVDwO7_nxNrqoyQjBtw-7" value="Telefone" style="text;html=1;align=center;verticalAlign=middle;whiteSpace=wrap;rounded=0;" vertex="1" parent="1">
          <mxGeometry x="295" y="310" width="60" height="30" as="geometry" />
        </mxCell>
        <mxCell id="ERVDwO7_nxNrqoyQjBtw-8" value="" style="rounded=0;whiteSpace=wrap;html=1;" vertex="1" parent="1">
          <mxGeometry x="300" y="340" width="80" height="30" as="geometry" />
        </mxCell>
        <mxCell id="ERVDwO7_nxNrqoyQjBtw-9" value="" style="rounded=0;whiteSpace=wrap;html=1;" vertex="1" parent="1">
          <mxGeometry x="390" y="340" width="120" height="30" as="geometry" />
        </mxCell>
        <mxCell id="ERVDwO7_nxNrqoyQjBtw-10" value="Endereço" style="text;html=1;align=center;verticalAlign=middle;whiteSpace=wrap;rounded=0;" vertex="1" parent="1">
          <mxGeometry x="384" y="310" width="60" height="30" as="geometry" />
        </mxCell>
        <mxCell id="ERVDwO7_nxNrqoyQjBtw-11" value="" style="rounded=0;whiteSpace=wrap;html=1;" vertex="1" parent="1">
          <mxGeometry x="300" y="410" width="210" height="30" as="geometry" />
        </mxCell>
        <mxCell id="ERVDwO7_nxNrqoyQjBtw-12" value="Estoque Atual" style="text;html=1;align=center;verticalAlign=middle;whiteSpace=wrap;rounded=0;" vertex="1" parent="1">
          <mxGeometry x="357.5" y="380" width="95" height="30" as="geometry" />
        </mxCell>
        <mxCell id="ERVDwO7_nxNrqoyQjBtw-13" value="" style="rounded=1;whiteSpace=wrap;html=1;fillColor=#f5f5f5;strokeColor=#666666;fontColor=#333333;" vertex="1" parent="1">
          <mxGeometry x="345" y="510" width="120" height="60" as="geometry" />
        </mxCell>
        <mxCell id="ERVDwO7_nxNrqoyQjBtw-14" value="Enviar" style="text;html=1;align=center;verticalAlign=middle;whiteSpace=wrap;rounded=0;" vertex="1" parent="1">
          <mxGeometry x="375" y="525" width="60" height="30" as="geometry" />
        </mxCell>
      </root>
    </mxGraphModel>
  </diagram>
</mxfile>
